{"title":"Arshinagar (2015) - 720p - DVDRip - x264 - DTS - ESub [DDR]","uid":13876311,"size":4362591908,"categoryP":"video","categoryS":"hd___movies","magnet":"?xt=urn:btih:ea89fd8c183a237eadf47dd507a5d91f3dcbcc20&amp;dn=Arshinagar+%282015%29+-+720p+-+DVDRip+-+x264+-+DTS+-+ESub+%5BDDR%5D&amp;tr=udp%3A%2F%2Ftracker.leechers-paradise.org%3A6969&amp;tr=udp%3A%2F%2Fzer0day.ch%3A1337&amp;tr=udp%3A%2F%2Fopen.demonii.com%3A1337&amp;tr=udp%3A%2F%2Ftracker.coppersurfer.tk%3A6969&amp;tr=udp%3A%2F%2Fexodus.desync.com%3A6969","seeders":1,"leechers":3,"uploader":"SaM","files":11,"time":1458126894,"description":"( A film by Aparna Sen )\r\n\r\n\r\n\r\n\r\nUpscaled DVD Rip - 720p - x264 - ESub - Chapters\r\n\r\nUnouched 5.1 DTS - MKV - 4.00 GB\r\n\r\n*2015*\r\n\r\nFormat : Matroska\r\nFormat version : Version 2\r\nFile size : 4.01 GiB\r\nDuration : 2h 31mn\r\nOverall bit rate mode : Variable\r\nOverall bit rate : 3 793 Kbps\r\nEncoded date : UTC 2016-03-16 09:01:57\r\nWriting application : mkvmerge v8.5.2 ('Crosses') 32bit\r\nWriting library : libebml v1.3.3 + libmatroska v1.4.4\r\n\r\nVideo\r\nID : 1\r\nFormat : AVC\r\nFormat/Info : Advanced Video Codec\r\nFormat profile :   \r\nFormat settings, CABAC : Yes\r\nFormat settings, ReFrames : 8 frames\r\nCodec ID : V_MPEG4/ISO/AVC\r\nDuration : 2h 31mn\r\nBit rate mode : Variable\r\nBit rate : 3 034 Kbps\r\nMaximum bit rate : 40.0 Mbps\r\nWidth : 1 280 pixels\r\nHeight : 544 pixels\r\nDisplay aspect ratio : 2.35:1\r\nFrame rate mode : Constant\r\nFrame rate : 23.976 (24000/1001) fps\r\nColor space : YUV\r\nChroma subsampling : 4:2:0\r\nBit depth : 8 bits\r\nScan type : Progressive\r\nBits/(Pixel*Frame) : 0.182\r\nStream size : 3.21 GiB (80%)\r\nTitle : Arshinagar (2015) - 720p - DVDRip - x264 - DTS - ESub [DDR]\r\nLanguage : English\r\nDefault : Yes\r\nForced : No\r\n\r\nAudio\r\nID : 2\r\nFormat : DTS\r\nFormat/Info : Digital Theater Systems\r\nMode : 16\r\nFormat settings, Endianness : Big\r\nCodec ID : A_DTS\r\nDuration : 2h 31mn\r\nBit rate mode : Constant\r\nBit rate : 755 Kbps\r\nChannel(s) : 6 channels\r\nChannel positions : Front: L C R, Side: L R, LFE\r\nSampling rate : 48.0 KHz\r\nFrame rate : 93.750 fps (512 spf)\r\nBit depth : 24 bits\r\nCompression mode : Lossy\r\nStream size : 817 MiB (20%)\r\nTitle : Untouched 5.1 DTS [DDR]\r\nLanguage : Bengali\r\nDefault : Yes\r\nForced : No\r\n\r\nText\r\nID : 3\r\nFormat : VobSub\r\nMuxing mode : zlib\r\nCodec ID : S_VOBSUB\r\nCodec ID/Info : Picture based subtitle format used on DVDs\r\nDuration : 2h 26mn\r\nBit rate : 1 607 bps\r\nCount of elements : 1702\r\nStream size : 1.68 MiB (0%)\r\nTitle : Vobsub [DDR]\r\nLanguage : English\r\nDefault : Yes\r\nForced : No\r\n\r\nMenu\r\n00:00:00.000 : en:Chapter 01\r\n00:03:55.500 : en:Chapter 02\r\n00:13:08.000 : en:Chapter 03\r\n00:16:05.000 : en:Chapter 04\r\n00:18:05.500 : en:Chapter 05\r\n00:34:20.000 : en:Chapter 06\r\n00:38:36.000 : en:Chapter 07\r\n00:41:14.500 : en:Chapter 08\r\n00:50:00.000 : en:Chapter 09\r\n00:54:08.000 : en:Chapter 10\r\n00:57:49.500 : en:Chapter 11\r\n00:59:03.500 : en:Chapter 12\r\n01:02:44.000 : en:Chapter 13\r\n01:05:14.000 : en:Chapter 14\r\n01:10:39.000 : en:Chapter 15\r\n01:15:56.500 : en:Chapter 16\r\n01:16:10.500 : en:Chapter 17\r\n01:31:08.500 : en:Chapter 18\r\n01:33:47.000 : en:Chapter 19\r\n01:34:57.000 : en:Chapter 20\r\n01:36:39.000 : en:Chapter 21\r\n01:40:21.500 : en:Chapter 22\r\n01:46:07.000 : en:Chapter 23\r\n02:07:52.500 : en:Chapter 24\r\n02:27:46.000 : en:Chapter 25\r\n02:30:37.000 : en:Chapter 26\r\n02:31:09.367 : en:Chapter 27\r\n \nhttp://extraimago.com/image/aslT \nhttp://extraimago.com/image/aslN \nhttp://extraimago.com/image/asl2 \nhttp://extraimago.com/image/aslw \nhttp://extraimago.com/image/asla \nhttp://extraimago.com/image/asl8 \nhttp://extraimago.com/image/asif \nhttp://extraimago.com/image/asiW\r\n\r\nMake sure it is Genuine DDR release @ ExtraTorrent.com\r\n                     \nhttps://extratorrent.cc/                     \nhttps://extratorrent.com/                     \nhttp://extratorrent.ws/                     \nhttps://etproxy.com/                     \nhttps://extratorrentlive.com/                     \nhttps://extratorrentonline.com/                     \nhttps://etmirror.com/                     \nhttps://extratorrent.works/                     \nhttps://extratorrent.date/\r\n\r\n\r\nShare your Images with:\r\n                     \nhttp://extraimago.com/\r\n\r\nHelp us by donating with Bitcoin: 1XeH1kKXWYbzZcFHokGiZ4d3MWW5WyXzU","torrent":{"xt":"urn:btih:ea89fd8c183a237eadf47dd507a5d91f3dcbcc20","amp;dn":"Arshinagar+%282015%29+-+720p+-+DVDRip+-+x264+-+DTS+-+ESub+%5BDDR%5D","amp;tr":["udp%3A%2F%2Ftracker.leechers-paradise.org%3A6969","udp%3A%2F%2Fzer0day.ch%3A1337","udp%3A%2F%2Fopen.demonii.com%3A1337","udp%3A%2F%2Ftracker.coppersurfer.tk%3A6969","udp%3A%2F%2Fexodus.desync.com%3A6969"],"infoHash":"ea89fd8c183a237eadf47dd507a5d91f3dcbcc20","infoHashBuffer":{"type":"Buffer","data":[234,137,253,140,24,58,35,126,173,244,125,213,7,165,217,31,61,203,204,32]},"announce":[],"urlList":[]}}